<?xml version="1.0" encoding="UTF-8" standalone="no"?>
<svg
   inkscape:version="1.3 (0e150ed6c4, 2023-07-21)"
   sodipodi:docname="Long 5.svg"
   width="191.57486mm"
   height="13.899282mm"
   viewBox="0 0 191.57486 13.899282"
   version="1.1"
   id="svg2326"
   xmlns:inkscape="http://www.inkscape.org/namespaces/inkscape"
   xmlns:sodipodi="http://sodipodi.sourceforge.net/DTD/sodipodi-0.dtd"
   xmlns="http://www.w3.org/2000/svg"
   xmlns:svg="http://www.w3.org/2000/svg"
   xmlns:rdf="http://www.w3.org/1999/02/22-rdf-syntax-ns#"
   xmlns:cc="http://creativecommons.org/ns#"
   xmlns:dc="http://purl.org/dc/elements/1.1/">
  <sodipodi:namedview
     inkscape:current-layer="svg2326"
     inkscape:window-maximized="1"
     inkscape:window-y="-8"
     inkscape:window-x="1912"
     inkscape:cy="-20.253446"
     inkscape:cx="367.87624"
     inkscape:zoom="1.3577936"
     showgrid="false"
     id="namedview9"
     inkscape:window-height="1009"
     inkscape:window-width="2560"
     inkscape:pageshadow="2"
     inkscape:pageopacity="0"
     guidetolerance="10"
     gridtolerance="10"
     objecttolerance="10"
     borderopacity="1"
     bordercolor="#666666"
     pagecolor="#ffffff"
     inkscape:showpageshadow="2"
     inkscape:pagecheckerboard="0"
     inkscape:deskcolor="#d1d1d1"
     inkscape:document-units="mm" />
  <defs
     id="defs2320">
    <style
       id="style890">.cls-1{fill:#020202;stroke:#020202;stroke-width:0.06px;}</style>
    <style
       id="style890-7">.cls-1{fill:#020202;stroke:#020202;stroke-width:0.06px;}</style>
    <style
       id="style890-3">.cls-1{fill:#020202;stroke:#020202;stroke-width:0.06px;}</style>
    <style
       id="style890-0">.cls-1{fill:#020202;stroke:#020202;stroke-width:0.06px;}</style>
    <style
       id="style890-1">.cls-1{fill:#020202;stroke:#020202;stroke-width:0.06px;}</style>
    <style
       id="style890-7-4">.cls-1{fill:#020202;stroke:#020202;stroke-width:0.06px;}</style>
    <style
       id="style890-4">.cls-1{fill:#020202;stroke:#020202;stroke-width:0.06px;}</style>
    <style
       id="style890-7-3">.cls-1{fill:#020202;stroke:#020202;stroke-width:0.06px;}</style>
  </defs>
  <metadata
     id="metadata2323">
    <rdf:RDF>
      <cc:Work
         rdf:about="">
        <dc:format>image/svg+xml</dc:format>
        <dc:type
           rdf:resource="http://purl.org/dc/dcmitype/StillImage" />
        <dc:title />
      </cc:Work>
    </rdf:RDF>
  </metadata>
  <path
     id="path1204"
     style="fill:#000000;stroke:none;stroke-width:0.211005px;stroke-linecap:butt;stroke-linejoin:miter;stroke-opacity:1"
     d="m 11.724866,0.00148614 c -0.930372,0.02677 -1.876962,0.415504 -2.464449,1.22679796 -1.109925,1.532753 -1.163031,4.26011 0.989087,5.721099 -2.152118,1.460989 -2.099012,4.1888619 -0.989087,5.7216149 0.587487,0.811294 1.534085,1.200033 2.464449,1.226798 1.550607,0.0446 3.055822,-0.916881 2.776058,-2.607077 -0.447604,-2.7043139 -3.338413,-2.0325739 -3.30109,-0.950846 0.03734,1.081722 1.082104,1.790073 1.082104,1.790073 0,0 -2.126016,0.727363 -2.31252,-1.641245 -0.186503,-2.3686059 2.510518,-2.5502309 5.042586,-2.5502309 h 64.337157 c 0.446995,0.755493 1.461479,1.569561 3.766696,0.95188 2.062587,-0.552669 3.725487,-1.943033 6.636807,-1.943033 -2.99628,-0.230484 -4.50483,-1.437921 -6.636807,-2.00918 -0.482211,-0.129209 -0.9105,-0.181041 -1.287261,-0.181901 -1.407655,-0.0032 -2.114323,0.621085 -2.47065,1.20406 H 15.012004 c -2.532068,0 -5.229081,-0.181109 -5.042586,-2.549715 0.186504,-2.368608 2.31252,-1.641245 2.31252,-1.641245 0,0 -1.044782,0.708351 -1.082104,1.790073 -0.03733,1.081728 2.853494,1.753468 3.30109,-0.950846 0.279756,-1.69019596 -1.22546,-2.65168096 -2.776058,-2.60707696 z m 168.125124,0 c -1.55059,-0.0446 -3.05582,0.916881 -2.77605,2.60707696 0.44758,2.704314 3.33842,2.032574 3.30109,0.950846 -0.0373,-1.081722 -1.08211,-1.790073 -1.08211,-1.790073 0,0 2.12602,-0.727363 2.31252,1.641245 0.18649,2.368606 -2.51051,2.549715 -5.04258,2.549715 h -64.34594 c -0.35633,-0.582982 -1.063,-1.207285 -2.47065,-1.20406 -0.37676,7.94e-4 -0.80399,0.05667 -1.28727,0.181901 -2.53696,0.679775 -3.57437,1.778696 -6.57065,2.00918 2.91132,0 3.53897,1.130694 6.57065,1.943033 2.30523,0.617683 3.3197,-0.196384 3.7667,-0.95188 h 64.33716 c 2.53207,0 5.22908,0.181625 5.04258,2.5502309 -0.1865,2.368608 -2.31252,1.641245 -2.31252,1.641245 0,0 1.04479,-0.708351 1.08211,-1.790073 0.0374,-1.0817279 -2.8535,-1.7534679 -3.30109,0.950846 -0.27977,1.690196 1.22545,2.651681 2.77605,2.607077 0.93037,-0.02677 1.87696,-0.415504 2.46446,-1.226798 1.10991,-1.532753 1.16303,-4.2606259 -0.98909,-5.7216149 2.15212,-1.460989 2.099,-4.188346 0.98909,-5.721099 -0.5875,-0.81129396 -1.53409,-1.20003296 -2.46446,-1.22679796 z M 95.787434,1.1326831 c -0.72598,2.438413 -1.82418,4.611928 -4.37338,5.752621 2.54944,0.769733 3.54763,2.796643 4.37338,5.4916539 0.82575,-2.6950109 1.82394,-4.7219209 4.373366,-5.4916539 -2.549196,-1.140693 -3.647386,-3.314208 -4.373366,-5.752621 z m -90.891608,1.47588 c -0.03683,-0.003 -0.07354,-0.0031 -0.109038,5.29e-4 -0.16227,0.01659 -0.309831,0.104119 -0.435115,0.282154 -0.09396,0.133527 -0.139665,0.267994 -0.146245,0.402043 -0.06363,1.295659 3.574976,2.552297 3.574976,2.552297 0,0 -1.742903,-3.145935 -2.884578,-3.23701 z m 181.783724,0 c -1.14171,0.09107 -2.88561,3.23701 -2.88561,3.23701 0,0 3.63913,-1.256638 3.57549,-2.552298 -0.006,-0.134046 -0.0523,-0.268512 -0.14624,-0.402042 -0.12529,-0.178033 -0.27285,-0.265568 -0.43512,-0.282154 -0.0354,-0.0036 -0.0716,-0.0034 -0.10852,-5.29e-4 z M 1.885157,5.1794661 C 0.126482,5.1754661 0,6.9493831 0,6.9493831 c 0,0 0.172574,2.345232 2.742985,1.648479 2.464374,-0.66801 4.028267,-1.648479 5.969662,-1.648479 -1.99807,-0.153699 -3.541179,-1.019262 -5.969662,-1.648478 -0.322252,-0.0835 -0.60659,-0.120865 -0.857828,-0.121439 z m 187.805063,0 c -0.25124,5.29e-4 -0.5366,0.03793 -0.85886,0.121439 -2.42849,0.629216 -3.97109,1.494779 -5.96915,1.648478 1.9414,0 3.50478,0.980469 5.96915,1.648479 2.57041,0.696753 2.7435,-1.648479 2.7435,-1.648479 0,0 -0.12596,-1.773944 -1.88464,-1.769917 z M 7.780404,8.0542251 c 0,0 -3.63861,1.255601 -3.574976,2.5512659 0.0066,0.134032 0.05228,0.269028 0.146245,0.402558 1.002281,1.424286 3.428731,-2.9538269 3.428731,-2.9538239 z m 176.013536,0 c 0,-3e-6 2.42697,4.3781099 3.42925,2.9538239 0.094,-0.13353 0.13987,-0.268526 0.14624,-0.402558 0.0636,-1.2956649 -3.57549,-2.5512689 -3.57549,-2.5512659 z" />
</svg>
