<?xml version="1.0" encoding="UTF-8" standalone="no"?>
<svg
   inkscape:version="1.3 (0e150ed6c4, 2023-07-21)"
   sodipodi:docname="Long 9.svg"
   width="200.08894mm"
   height="13.683496mm"
   viewBox="0 0 200.08894 13.683496"
   version="1.1"
   id="svg2326"
   xmlns:inkscape="http://www.inkscape.org/namespaces/inkscape"
   xmlns:sodipodi="http://sodipodi.sourceforge.net/DTD/sodipodi-0.dtd"
   xmlns="http://www.w3.org/2000/svg"
   xmlns:svg="http://www.w3.org/2000/svg"
   xmlns:rdf="http://www.w3.org/1999/02/22-rdf-syntax-ns#"
   xmlns:cc="http://creativecommons.org/ns#"
   xmlns:dc="http://purl.org/dc/elements/1.1/">
  <sodipodi:namedview
     inkscape:current-layer="svg2326"
     inkscape:window-maximized="1"
     inkscape:window-y="-8"
     inkscape:window-x="1912"
     inkscape:cy="41.611626"
     inkscape:cx="368.61273"
     inkscape:zoom="1.3577936"
     showgrid="false"
     id="namedview9"
     inkscape:window-height="1009"
     inkscape:window-width="2560"
     inkscape:pageshadow="2"
     inkscape:pageopacity="0"
     guidetolerance="10"
     gridtolerance="10"
     objecttolerance="10"
     borderopacity="1"
     bordercolor="#666666"
     pagecolor="#ffffff"
     inkscape:showpageshadow="2"
     inkscape:pagecheckerboard="0"
     inkscape:deskcolor="#d1d1d1"
     inkscape:document-units="mm" />
  <defs
     id="defs2320">
    <style
       id="style890">.cls-1{fill:#020202;stroke:#020202;stroke-width:0.06px;}</style>
    <style
       id="style890-7">.cls-1{fill:#020202;stroke:#020202;stroke-width:0.06px;}</style>
    <style
       id="style890-3">.cls-1{fill:#020202;stroke:#020202;stroke-width:0.06px;}</style>
    <style
       id="style890-0">.cls-1{fill:#020202;stroke:#020202;stroke-width:0.06px;}</style>
    <style
       id="style890-1">.cls-1{fill:#020202;stroke:#020202;stroke-width:0.06px;}</style>
    <style
       id="style890-7-4">.cls-1{fill:#020202;stroke:#020202;stroke-width:0.06px;}</style>
    <style
       id="style890-4">.cls-1{fill:#020202;stroke:#020202;stroke-width:0.06px;}</style>
    <style
       id="style890-7-3">.cls-1{fill:#020202;stroke:#020202;stroke-width:0.06px;}</style>
    <style
       id="style890-41">.cls-1{fill:#020202;stroke:#020202;stroke-width:0.06px;}</style>
    <style
       id="style890-7-2">.cls-1{fill:#020202;stroke:#020202;stroke-width:0.06px;}</style>
    <style
       id="style890-3-6">.cls-1{fill:#020202;stroke:#020202;stroke-width:0.06px;}</style>
    <style
       id="style890-0-3">.cls-1{fill:#020202;stroke:#020202;stroke-width:0.06px;}</style>
    <style
       id="style890-1-9">.cls-1{fill:#020202;stroke:#020202;stroke-width:0.06px;}</style>
    <style
       id="style890-7-4-0">.cls-1{fill:#020202;stroke:#020202;stroke-width:0.06px;}</style>
    <style
       id="style890-4-2">.cls-1{fill:#020202;stroke:#020202;stroke-width:0.06px;}</style>
    <style
       id="style890-7-3-3">.cls-1{fill:#020202;stroke:#020202;stroke-width:0.06px;}</style>
    <style
       id="style890-2">.cls-1{fill:#020202;stroke:#020202;stroke-width:0.06px;}</style>
    <style
       id="style890-7-5">.cls-1{fill:#020202;stroke:#020202;stroke-width:0.06px;}</style>
    <style
       id="style890-70">.cls-1{fill:#020202;stroke:#020202;stroke-width:0.06px;}</style>
    <style
       id="style890-7-22">.cls-1{fill:#020202;stroke:#020202;stroke-width:0.06px;}</style>
    <style
       id="style890-9">.cls-1{fill:#020202;stroke:#020202;stroke-width:0.06px;}</style>
    <style
       id="style890-7-8">.cls-1{fill:#020202;stroke:#020202;stroke-width:0.06px;}</style>
  </defs>
  <metadata
     id="metadata2323">
    <rdf:RDF>
      <cc:Work
         rdf:about="">
        <dc:format>image/svg+xml</dc:format>
        <dc:type
           rdf:resource="http://purl.org/dc/dcmitype/StillImage" />
        <dc:title />
      </cc:Work>
    </rdf:RDF>
  </metadata>
  <path
     d="m 88.454123,0.00107184 c -0.291209,0.0065 -0.585041,0.04089 -0.832101,0.0781 -2.37099,0.357043 -4.061608,1.89053196 -4.636139,3.86411696 l -0.218289,0.830099 c -0.638559,3.946238 1.426921,6.8433782 4.834903,7.8879462 -1.853473,-0.170182 -4.070762,-1.418351 -5.480758,-2.8733062 -3.500568,-3.612181 -8.535328,-8.75898 -12.517576,-4.045354 2.183774,-0.656598 4.583146,0.578058 6.286827,2.080253 1.167718,1.029623 5.954452,4.5927312 7.443353,5.0556952 7.251916,2.254932 12.799197,-0.540739 16.710127,-4.5139772 3.91093,3.9732382 9.45821,6.7689092 16.71012,4.5139772 1.48891,-0.462964 6.27513,-4.0260722 7.44286,-5.0556952 1.70367,-1.502195 4.10305,-2.736851 6.28682,-2.080253 -3.98225,-4.713626 -9.01701,0.433173 -12.51757,4.045354 -1.41,1.4549552 -3.62729,2.7031242 -5.48076,2.8733062 3.40798,-1.044568 5.47397,-3.9417082 4.8354,-7.8879462 l -0.21878,-0.830099 c -0.57453,-1.973585 -2.26514,-3.50707396 -4.63614,-3.86411696 -0.32941,-0.0496 -0.74196,-0.09459 -1.12049,-0.0741 -3.79545,0.205356 -6.45133,3.21945896 -4.83289,8.22989796 0.004,0.04327 0.0604,0.100479 0.0857,0.03705 0.17916,-0.28773 0.38758,-0.556615 0.61382,-0.809071 0.90963,-1.08117 1.82422,-1.657698 2.76315,-2.020175 1.43959,-0.500649 2.85608,-0.0081 4.04235,0.982803 -0.19322,-1.754674 -1.37454,-3.259961 -3.37647,-3.466091 0.53411,-0.469573 1.84317,-0.474989 2.80571,-0.266352 3.06343,0.664016 3.93023,5.732206 -0.22429,8.3846032 -3.99869,2.552905 -9.25176,0.08606 -12.43046,-3.0640582 -0.0453,-0.08106 0.0358,-0.13485 0.0901,-0.18124 0.58757,-0.468304 1.12292,-1.345708 1.23714,-2.426211 0.1405,-0.917239 -0.21924,-2.999946 -1.83594,-4.26615 -0.0788,-0.06036 -0.15854,-0.116867 -0.23931,-0.16972396 -0.0808,0.05286 -0.16105,0.10936196 -0.23982,0.16972396 -1.6167,1.266204 -1.97594,3.348911 -1.83543,4.26615 0.11421,1.080503 0.64957,1.957907 1.23714,2.426211 0.0543,0.04639 0.13552,0.100173 0.0901,0.18124 -3.1787,3.1501222 -8.432267,5.6169632 -12.43096,3.0640582 -4.154526,-2.6523972 -3.287732,-7.7205872 -0.224296,-8.3846032 0.962541,-0.208637 2.271603,-0.203221 2.805715,0.266352 -2.00194,0.20613 -3.182752,1.711417 -3.375971,3.466091 1.186268,-0.990986 2.602766,-1.483452 4.042353,-0.982803 0.938935,0.362477 1.853509,0.939005 2.763149,2.020175 0.22624,0.252456 0.43415,0.521341 0.61332,0.809071 0.0252,0.06343 0.0815,0.0062 0.0856,-0.03705 1.61844,-5.010439 -1.03744,-8.02454196 -4.832897,-8.22989796 -0.09463,-0.005099999 -0.19131,-0.0061 -0.288381,-0.004 z M 7.623595,2.0688078 c 0,0 -0.893219,0.06825 -1.476956,1.682228 -0.583757,1.61389 0.314917,2.490298 0.314917,2.490298 C 2.875853,4.9984038 1.1430203,6.5083868 0,7.5280378 c 1.1641797,1.10612 2.970557,2.6390482 6.461556,1.286703 0,0 -0.898674,0.87641 -0.314917,2.4902972 0.583737,1.613987 1.476956,1.68323 1.476956,1.68323 0,0 0.651669,-4.6020932 4.257137,-4.6020932 h 63.228219 c -0.353458,-0.271802 -0.698166,-0.555723 -1.06591,-0.807069 -0.681357,-0.465689 -1.483572,-0.777516 -2.300046,-0.909205 H 11.880732 c -3.605468,0 -4.257137,-4.601093 -4.257137,-4.601093 z m 184.841745,0 c 0,0 -0.65166,4.601093 -4.25713,4.601093 h -59.86227 c -0.81647,0.131689 -1.61868,0.443516 -2.30004,0.909205 -0.36774,0.251346 -0.71245,0.535267 -1.06591,0.807069 h 63.22822 c 3.60547,0 4.25713,4.6020932 4.25713,4.6020932 0,0 0.89323,-0.06924 1.47696,-1.68323 0.58376,-1.6138872 -0.31492,-2.4902972 -0.31492,-2.4902972 3.49101,1.3523452 5.29739,-0.180583 6.46156,-1.286703 -1.14301,-1.019651 -2.87585,-2.529634 -6.46156,-1.286704 0,0 0.89868,-0.876408 0.31492,-2.490298 -0.58373,-1.613978 -1.47696,-1.682228 -1.47696,-1.682228 z m -92.42087,0.629837 c 0.81722,0.767065 0.88109,1.558049 0.93174,2.054719 0.01,0.776547 -0.27595,1.421345 -0.93174,1.800884 -0.65578,-0.379539 -0.94166,-1.024337 -0.93174,-1.800884 0.0507,-0.49667 0.11453,-1.287654 0.93174,-2.054719 z M 3.742956,6.7434988 c 0.09446,-0.0031 0.190287,-0.003 0.28688,5e-4 1.545478,0.05532 2.595938,0.784039 2.595938,0.784039 0,0 -1.05046,0.728719 -2.595938,0.784037 -1.545448,0.05532 -2.8452675,-0.784037 -2.8452675,-0.784037 0,0 1.1422215,-0.737898 2.5583875,-0.784539 z m 192.603024,0 c 1.41617,0.04664 2.55839,0.784539 2.55839,0.784539 0,0 -1.29981,0.839358 -2.84526,0.784037 -1.54548,-0.05532 -2.59595,-0.784037 -2.59595,-0.784037 0,0 1.05047,-0.728717 2.59595,-0.784039 0.0966,-0.0035 0.19241,-0.0036 0.28687,-5e-4 z"
     style="fill:#000000;stroke:none;stroke-width:0.527488px;stroke-linecap:butt;stroke-linejoin:miter;stroke-opacity:1"
     id="path1037" />
</svg>
